<svg width="160" height="160" viewBox="0 0 160 160" fill="none" xmlns="http://www.w3.org/2000/svg">
<path d="M96.5733 20.9534C98.2749 21.432 99.7168 22.5668 100.582 24.1082C101.447 25.6496 101.665 27.4716 101.187 29.1734L71.6533 134.427C71.4169 135.27 71.0168 136.058 70.4758 136.747C69.9348 137.435 69.2635 138.01 68.5002 138.439C67.7369 138.868 66.8965 139.143 66.0272 139.247C65.1578 139.351 64.2764 139.283 63.4333 139.047C62.5902 138.81 61.802 138.41 61.1135 137.869C60.4251 137.328 59.8499 136.657 59.4209 135.894C58.9919 135.13 58.7174 134.29 58.6132 133.421C58.5089 132.551 58.5769 131.67 58.8133 130.827L88.3466 25.5734C88.5829 24.7295 88.9832 23.9405 89.5246 23.2514C90.0661 22.5624 90.7381 21.9869 91.5021 21.5578C92.2662 21.1287 93.1074 20.8544 93.9776 20.7507C94.8477 20.647 95.7298 20.7159 96.5733 20.9534ZM48.0466 47C49.2965 48.2502 49.9986 49.9456 49.9986 51.7134C49.9986 53.4811 49.2965 55.1765 48.0466 56.4267L24.48 80L48.0466 103.567C48.666 104.186 49.1575 104.921 49.4929 105.729C49.8282 106.538 50.001 107.405 50.0013 108.281C50.0016 109.157 49.8295 110.024 49.4947 110.833C49.1599 111.642 48.6689 112.377 48.05 112.997C47.431 113.616 46.6961 114.108 45.8872 114.443C45.0784 114.778 44.2113 114.951 43.3357 114.951C42.46 114.952 41.5929 114.78 40.7838 114.445C39.9746 114.11 39.2394 113.619 38.62 113L10.3333 84.7134C9.08351 83.4632 8.38141 81.7678 8.38141 80C8.38141 78.2323 9.08351 76.5369 10.3333 75.2867L38.62 47C39.8702 45.7502 41.5656 45.0481 43.3333 45.0481C45.1011 45.0481 46.7965 45.7502 48.0466 47ZM111.953 56.4267C111.317 55.8117 110.809 55.0761 110.459 54.2627C110.11 53.4494 109.926 52.5746 109.918 51.6894C109.911 50.8042 110.079 49.9263 110.414 49.107C110.75 48.2877 111.245 47.5434 111.871 46.9174C112.497 46.2914 113.241 45.7964 114.06 45.4612C114.88 45.126 115.757 44.9573 116.643 44.965C117.528 44.9727 118.403 45.1566 119.216 45.506C120.029 45.8554 120.765 46.3633 121.38 47L149.667 75.2867C150.916 76.5369 151.619 78.2323 151.619 80C151.619 81.7678 150.916 83.4632 149.667 84.7134L121.38 113C120.129 114.25 118.433 114.952 116.664 114.951C114.896 114.951 113.2 114.248 111.95 112.997C110.7 111.746 109.998 110.049 109.999 108.281C109.999 106.513 110.702 104.817 111.953 103.567L135.52 80L111.953 56.4267Z" fill="#00FF88"/>
</svg>
