<svg width="160" height="160" viewBox="0 0 160 160" fill="none" xmlns="http://www.w3.org/2000/svg">
<path d="M62.5267 25.5534L61.4467 19.2C60.98 16.4 60.74 15 59.7267 14.1667C58.7133 13.3334 57.2467 13.3334 54.3067 13.3334H52.3733C49.44 13.3334 47.9733 13.3334 46.96 14.1667C45.9467 15 45.7067 16.4 45.2333 19.2L44.16 25.5534C41.909 26.4389 39.7965 27.6422 37.8867 29.1267L31.8867 26.9134C29.1133 25.8934 27.7333 25.38 26.4733 25.82C25.2133 26.26 24.4733 27.5067 23.0133 30L21.9467 31.82C20.52 34.2467 19.8133 35.46 20.0467 36.7067C20.2733 37.9534 21.38 38.8534 23.5933 40.64L28.7067 44.7867C28.3636 47.1432 28.3636 49.5369 28.7067 51.8934L23.6067 56.0267C21.3933 57.82 20.2933 58.7134 20.06 59.96C19.8267 61.2067 20.5333 62.4267 21.96 64.8467L23.0267 66.6734C24.4933 69.1667 25.2267 70.4067 26.4867 70.8534C27.7467 71.2867 29.1267 70.78 31.9 69.76L37.8933 67.5467C39.78 69.0134 41.8933 70.2267 44.16 71.1134L45.2333 77.4667C45.7067 80.2667 45.9467 81.6667 46.96 82.5C47.9733 83.3334 49.44 83.3334 52.3733 83.3334H54.3067C57.24 83.3334 58.7067 83.3334 59.7267 82.5C60.7467 81.6667 60.9733 80.2667 61.4467 77.4667L62.5267 71.1134C64.7933 70.2267 66.9 69.02 68.7867 67.5534L74.7667 69.7534C77.54 70.78 78.92 71.2867 80.18 70.8534C81.4467 70.4134 82.18 69.1667 83.64 66.6734L84.7067 64.8467C86.1267 62.42 86.84 61.2067 86.6067 59.96C86.38 58.7134 85.2733 57.82 83.06 56.0267L77.9733 51.9067C78.319 49.5415 78.319 47.1386 77.9733 44.7734L83.0733 40.64C85.2867 38.8534 86.3933 37.9534 86.62 36.7067C86.8467 35.46 86.1467 34.2467 84.72 31.82L83.6533 30C82.1867 27.5067 81.4533 26.26 80.1933 25.82C78.9333 25.38 77.5533 25.8867 74.78 26.9134L68.7933 29.12C66.9067 27.6534 64.7933 26.44 62.5267 25.5534ZM115.86 88.8867L114.78 82.5334C114.313 79.7334 114.067 78.3334 113.06 77.5C112.053 76.6667 110.58 76.6667 107.64 76.6667H105.707C102.773 76.6667 101.307 76.6667 100.293 77.5C99.28 78.3334 99.04 79.7334 98.5667 82.5334L97.4933 88.8867C95.2424 89.7722 93.1298 90.9755 91.22 92.46L85.22 90.2467C82.4467 89.2267 81.0667 88.7134 79.8067 89.1534C78.5467 89.5934 77.8067 90.84 76.3467 93.3334L75.28 95.1534C73.8533 97.58 73.1467 98.7934 73.38 100.04C73.6067 101.293 74.7133 102.187 76.9267 103.973L82.04 108.12C81.697 110.477 81.697 112.87 82.04 115.227L76.94 119.36C74.7267 121.153 73.62 122.047 73.3933 123.293C73.1667 124.54 73.8733 125.76 75.2933 128.18L76.36 130.007C77.8267 132.5 78.56 133.74 79.82 134.187C81.08 134.62 82.46 134.113 85.2333 133.093L91.2267 130.88C93.1133 132.347 95.2267 133.56 97.4933 134.447L98.5667 140.8C99.04 143.6 99.28 145 100.293 145.833C101.307 146.667 102.773 146.667 105.707 146.667H107.64C110.573 146.667 112.04 146.667 113.06 145.833C114.067 145 114.307 143.6 114.78 140.8L115.86 134.447C118.127 133.56 120.233 132.353 122.12 130.887L128.1 133.087C130.873 134.113 132.253 134.62 133.513 134.187C134.78 133.747 135.513 132.5 136.967 130.007L138.04 128.18C139.46 125.753 140.173 124.54 139.94 123.293C139.707 122.047 138.607 121.153 136.393 119.36L131.307 115.24C131.652 112.875 131.652 110.472 131.307 108.107L136.407 103.973C138.62 102.187 139.727 101.293 139.96 100.04C140.187 98.7934 139.48 97.58 138.053 95.1534L136.987 93.3334C135.52 90.84 134.787 89.5934 133.527 89.1534C132.267 88.7134 130.887 89.22 128.113 90.2467L122.127 92.4534C120.24 90.9867 118.127 89.7734 115.86 88.8867Z" stroke="#00FF88" stroke-width="5.5" stroke-linejoin="round"/>
<path d="M55 48.3333H53.3333M108.333 111.667H106.667M56.6667 48.3333C56.6667 49.2174 56.3155 50.0652 55.6904 50.6904C55.0652 51.3155 54.2174 51.6667 53.3333 51.6667C52.4493 51.6667 51.6014 51.3155 50.9763 50.6904C50.3512 50.0652 50 49.2174 50 48.3333C50 47.4493 50.3512 46.6014 50.9763 45.9763C51.6014 45.3512 52.4493 45 53.3333 45C54.2174 45 55.0652 45.3512 55.6904 45.9763C56.3155 46.6014 56.6667 47.4493 56.6667 48.3333ZM110 111.667C110 112.551 109.649 113.399 109.024 114.024C108.399 114.649 107.551 115 106.667 115C105.783 115 104.935 114.649 104.31 114.024C103.685 113.399 103.333 112.551 103.333 111.667C103.333 110.783 103.685 109.935 104.31 109.31C104.935 108.685 105.783 108.333 106.667 108.333C107.551 108.333 108.399 108.685 109.024 109.31C109.649 109.935 110 110.783 110 111.667Z" stroke="#00FF88" stroke-width="5.5" stroke-linecap="round" stroke-linejoin="round"/>
</svg>
