<svg width="45" height="45" viewBox="0 0 45 45" fill="none" xmlns="http://www.w3.org/2000/svg">
<path d="M15 11.25H31.875V15H15V11.25Z" fill="#00FF88"/>
<path d="M37.5 3.75H11.25C8.15625 3.75 5.625 6.28125 5.625 9.375V35.625C5.625 38.7187 8.15625 41.25 11.25 41.25H39.375V37.5H11.25C10.2187 37.5 9.375 36.6563 9.375 35.625C9.375 34.5937 10.2187 33.75 11.25 33.75H37.5C38.5313 33.75 39.375 32.9063 39.375 31.875V5.625C39.375 4.59375 38.5313 3.75 37.5 3.75ZM26.25 30H11.25C10.5938 30 9.95625 30.1313 9.375 30.3375V9.375C9.375 8.34375 10.2187 7.5 11.25 7.5H35.625V30H26.25Z" fill="#00FF88"/>
</svg>
