<svg width="45" height="45" viewBox="0 0 45 45" fill="none" xmlns="http://www.w3.org/2000/svg">
<path fill-rule="evenodd" clip-rule="evenodd" d="M7.94433 21.3421C8.25147 21.0011 8.68146 20.7961 9.13974 20.7721C9.59802 20.7481 10.0471 20.907 10.3882 21.214L16.1586 26.4064C16.4892 26.7161 16.6852 27.1432 16.7045 27.5959C16.7237 28.0486 16.5647 28.4908 16.2615 28.8276C15.9583 29.1643 15.5352 29.3687 15.0829 29.3969C14.6307 29.425 14.1854 29.2748 13.8428 28.9783L8.07241 23.786C7.73143 23.4788 7.52639 23.0488 7.50237 22.5906C7.47836 22.1323 7.63733 21.6832 7.94433 21.3421Z" fill="#00FF88"/>
<path fill-rule="evenodd" clip-rule="evenodd" d="M16.2866 16.1498C16.5936 16.4909 16.7526 16.94 16.7286 17.3982C16.7046 17.8565 16.4995 18.2865 16.1586 18.5936L10.3882 23.786C10.2202 23.9433 10.0225 24.0656 9.80673 24.1456C9.59093 24.2257 9.36134 24.2618 9.13138 24.2521C8.90142 24.2423 8.67573 24.1868 8.4675 24.0887C8.25927 23.9906 8.07269 23.852 7.91868 23.681C7.76467 23.5099 7.64632 23.3099 7.57056 23.0925C7.4948 22.8752 7.46316 22.6449 7.47747 22.4152C7.49179 22.1855 7.55178 21.9609 7.65393 21.7547C7.75609 21.5484 7.89835 21.3646 8.07241 21.214L13.8428 16.0217C14.1839 15.7147 14.6329 15.5557 15.0912 15.5798C15.5495 15.6038 15.9795 15.8088 16.2866 16.1498ZM37.0559 21.3421C37.3629 21.6832 37.5218 22.1323 37.4978 22.5906C37.4738 23.0488 37.2688 23.4788 36.9278 23.786L31.1574 28.9783C30.9894 29.1356 30.7918 29.2579 30.576 29.3379C30.3602 29.418 30.1306 29.4542 29.9006 29.4444C29.6707 29.4346 29.445 29.3791 29.2367 29.281C29.0285 29.1829 28.8419 29.0443 28.6879 28.8733C28.5339 28.7022 28.4156 28.5022 28.3398 28.2849C28.264 28.0675 28.2324 27.8372 28.2467 27.6075C28.261 27.3778 28.321 27.1533 28.4232 26.947C28.5253 26.7407 28.6676 26.5569 28.8416 26.4063L34.612 21.214C34.9531 20.907 35.4022 20.7481 35.8605 20.7721C36.3187 20.7961 36.7487 21.0011 37.0559 21.3421Z" fill="#00FF88"/>
<path fill-rule="evenodd" clip-rule="evenodd" d="M28.7136 16.1498C29.0207 15.8088 29.4507 15.6038 29.909 15.5798C30.3673 15.5557 30.8163 15.7147 31.1574 16.0217L36.9278 21.214C37.2585 21.5238 37.4545 21.9509 37.4737 22.4036C37.493 22.8563 37.3339 23.2985 37.0307 23.6352C36.7276 23.972 36.3044 24.1764 35.8522 24.2045C35.3999 24.2327 34.9547 24.0824 34.612 23.786L28.8417 18.5936C28.5007 18.2865 28.2956 17.8565 28.2716 17.3982C28.2476 16.94 28.4066 16.4909 28.7136 16.1498ZM25.5515 11.3106C25.7708 11.3703 25.9763 11.4727 26.156 11.6118C26.3358 11.751 26.4864 11.9242 26.5993 12.1216C26.7121 12.3189 26.7849 12.5366 26.8136 12.7621C26.8423 12.9877 26.8263 13.2166 26.7665 13.436L21.5742 32.4744C21.4534 32.9174 21.1617 33.2942 20.7631 33.5221C20.3645 33.75 19.8917 33.8101 19.4488 33.6894C19.2294 33.6296 19.024 33.5272 18.8443 33.3881C18.6645 33.2489 18.5139 33.0757 18.4011 32.8784C18.1732 32.4798 18.113 32.007 18.2338 31.564L23.4261 12.5256C23.4858 12.3062 23.5882 12.1008 23.7273 11.921C23.8665 11.7412 24.0397 11.5906 24.2371 11.4778C24.4344 11.3649 24.6521 11.2921 24.8776 11.2634C25.1032 11.2347 25.3321 11.2507 25.5515 11.3106Z" fill="#00FF88"/>
<path fill-rule="evenodd" clip-rule="evenodd" d="M22.5 41.5385C33.0144 41.5385 41.5385 33.0144 41.5385 22.5C41.5385 11.9856 33.0144 3.46154 22.5 3.46154C11.9856 3.46154 3.46154 11.9856 3.46154 22.5C3.46154 33.0144 11.9856 41.5385 22.5 41.5385ZM22.5 45C34.9269 45 45 34.9269 45 22.5C45 10.0731 34.9269 0 22.5 0C10.0731 0 0 10.0731 0 22.5C0 34.9269 10.0731 45 22.5 45Z" fill="#00FF88"/>
</svg>
